<svg xmlns="http://www.w3.org/2000/svg" width="900" height="1100" viewBox="0 0 900 1100"><path fill="none" stroke="#F7F7F7" stroke-width="10" stroke-miterlimit="10" d="M107.048 142.925l636.57-55.721 71.33 814.891-636.57 55.721z"/><path fill="none" stroke="#F7F7F7" stroke-width="10" stroke-miterlimit="10" d="M158.241 262.137c28.048-2.7 29.772 15.217 57.82 12.518 28.048-2.7 26.323-20.617 54.372-23.317 28.047-2.7 29.772 15.217 57.819 12.518 28.049-2.7 26.324-20.617 54.373-23.316 28.047-2.7 29.772 15.217 57.819 12.518s26.322-20.617 54.37-23.316c28.049-2.7 29.773 15.217 57.822 12.517 28.048-2.7 26.323-20.617 54.37-23.316 28.052-2.7 29.776 15.217 57.828 12.517s26.327-20.617 54.379-23.317M168.241 371.137c28.048-2.7 29.772 15.217 57.82 12.518 28.048-2.7 26.323-20.617 54.372-23.317 28.047-2.7 29.772 15.217 57.819 12.518 28.049-2.7 26.324-20.617 54.373-23.316 28.047-2.7 29.772 15.217 57.819 12.518s26.322-20.617 54.37-23.316c28.049-2.7 29.773 15.217 57.822 12.517 28.048-2.7 26.323-20.617 54.371-23.316 28.052-2.7 29.776 15.217 57.827 12.517 28.052-2.7 26.327-20.617 54.379-23.317M179.241 486.137c28.048-2.7 29.772 15.217 57.82 12.518 28.048-2.7 26.323-20.617 54.372-23.317 28.047-2.7 29.772 15.217 57.819 12.518 28.049-2.7 26.324-20.617 54.373-23.316 28.047-2.7 29.772 15.217 57.819 12.518s26.322-20.617 54.37-23.316c28.049-2.7 29.773 15.217 57.822 12.517 28.048-2.7 26.323-20.617 54.37-23.316 28.052-2.7 29.776 15.217 57.828 12.517s26.327-20.617 54.379-23.317M179.241 610.137c28.048-2.699 29.772 15.218 57.82 12.519 28.048-2.7 26.324-20.617 54.372-23.317 28.047-2.699 29.772 15.218 57.819 12.519 28.049-2.7 26.324-20.618 54.373-23.318 28.047-2.699 29.772 15.218 57.819 12.519 28.047-2.7 26.322-20.617 54.37-23.317 28.049-2.699 29.773 15.218 57.822 12.519 28.048-2.7 26.323-20.617 54.37-23.317 28.052-2.7 29.776 15.218 57.828 12.518s26.327-20.618 54.379-23.318M196.241 721.137c28.048-2.699 29.772 15.218 57.82 12.519 28.048-2.7 26.324-20.617 54.372-23.317 28.047-2.699 29.772 15.218 57.819 12.519 28.049-2.7 26.324-20.618 54.373-23.318 28.047-2.699 29.772 15.218 57.819 12.519 28.047-2.7 26.322-20.617 54.37-23.317 28.049-2.699 29.773 15.218 57.822 12.519 28.048-2.7 26.323-20.617 54.37-23.317 28.052-2.7 29.776 15.218 57.828 12.518s26.327-20.618 54.379-23.318M224.241 833.137c28.048-2.699 29.772 15.218 57.82 12.519 28.048-2.7 26.323-20.617 54.372-23.317 28.047-2.699 29.772 15.217 57.819 12.518 28.049-2.7 26.324-20.617 54.373-23.317 28.047-2.699 29.772 15.218 57.819 12.519 28.047-2.7 26.322-20.617 54.37-23.317 28.049-2.699 29.773 15.218 57.822 12.519 28.048-2.7 26.323-20.617 54.371-23.317 28.052-2.7 29.776 15.218 57.827 12.518 28.052-2.7 26.327-20.618 54.379-23.318"/></svg>