<svg xmlns="http://www.w3.org/2000/svg" width="900" height="1100" viewBox="0 0 900 1100"><path fill="#333" d="M194.5 470h32a2.5 2.5 0 0 1 2.5 2.5v23.314c0 1.381-.64 3.418-1.429 4.551l-15.042 21.583c-.789 1.133-2.103 1.157-2.933.054l-15.768-20.942c-.831-1.103-1.517-3.116-1.532-4.497l-.268-24.064A2.466 2.466 0 0 1 194.5 470zM228 608h-35.5a2.5 2.5 0 0 1-2.5-2.5v-26.813c0-1.381.68-3.389 1.519-4.485l16.612-21.716c.839-1.097 2.183-1.084 3.001.027l16.686 22.661c.819 1.111 1.526 3.131 1.58 4.511l1.004 25.817A2.383 2.383 0 0 1 228 608zm-97-53.5v-32a2.5 2.5 0 0 1 2.5-2.5h27.314c1.381 0 3.418.64 4.551 1.429l21.583 15.042c1.133.789 1.133 2.069 0 2.859l-22.834 15.916c-1.132.79-3.17 1.441-4.551 1.456l-26.064.271A2.467 2.467 0 0 1 131 554.5zM292 521v35.5a2.5 2.5 0 0 1-2.5 2.5h-23.814c-1.381 0-3.389-.68-4.486-1.52l-21.715-16.612c-1.096-.839-1.103-2.208-.014-3.057l21.244-16.575c1.089-.849 3.089-1.583 4.469-1.64l24.318-.995A2.381 2.381 0 0 1 292 521zm263-2v33.5a2.5 2.5 0 0 1-2.5 2.5h-41.082c-1.381 0-3.521-.461-4.778-1.028l-36.829-16.624c-1.258-.568-1.263-1.498-.009-2.077l35.87-16.579c1.254-.579 3.389-1.076 4.769-1.109l42.061-1.021A2.425 2.425 0 0 1 555 519zm-199 33.485V519.5a2.5 2.5 0 0 1 2.5-2.5h41.544c1.381 0 3.522.455 4.784 1.017l36.818 16.39c1.261.562 1.266 1.481.009 2.055l-36.091 16.472c-1.256.573-3.394 1.063-4.774 1.092l-42.291.906a2.437 2.437 0 0 1-2.499-2.447z"/><circle fill="#009245" stroke="#009245" stroke-width="4" stroke-miterlimit="10" cx="691.702" cy="493.58" r="23.58"/><circle fill="#0071BC" stroke="#0071BC" stroke-width="4" stroke-miterlimit="10" cx="691.702" cy="584.699" r="23.58"/><circle fill="#FF1D25" stroke="#FF1D25" stroke-width="4" stroke-miterlimit="10" cx="644.543" cy="537.541" r="23.579"/><circle fill="#FF0" stroke="#FF0" stroke-width="4" stroke-miterlimit="10" cx="743" cy="538.5" r="23.579"/><path fill="none" stroke="#FFF" stroke-width="10" stroke-miterlimit="10" d="M333 659h224c11.046 0 23.855 7.832 28.611 17.801l44.444 93.043c4.756 9.969 14.966 24.297 22.805 32.079l3.574 3.768c7.839 7.782 23.147 14.31 34.193 14.31H701c11.046 0 28.396-3.36 38.755-7.196l65.535-24.399c10.358-3.836 22.112-15.31 26.253-25.55l8.459-20.949c4.141-10.24 7.498-21.317 7.498-24.724 0-3.405-2.362-14.811-5.275-25.466l-62.282-227.754c-2.913-10.654-12.491-24.595-21.394-31.135l-.432-.318c-8.901-6.54-16.621-15.685-17.242-20.425-.621-4.74-2.076-9.815-3.25-11.333s-3.972-3.981-6.25-5.499-4.685-2.723-5.375-3-10.204-.253-21.25-.253H620c-11.046 0-21.287.478-22.875 1.375s-3.826 2.228-5 3.125L590 398.063s-2.854 2.793-6.375 5.969S568.296 410 557.25 410H314c-11.046 0-20.56-2.041-21.25-4.25s-2.257-5.132-3.5-6.375-3.257-3.04-4.5-3.938-2.698-1.91-3.25-2.531-9.954-.906-21-.906H172c-11.046 0-21.623.589-23.625 1.625s-4.632 2.869-5.875 4.25-3.116 3.445-3.875 4.688-1.625 3.138-1.625 4.312v6.625c0 2.485-4.059 8.082-9.375 12.5S116.278 436.294 114 439.125s-4.846 7.028-5.813 9.375l-1.719 4.25-2.484 7.75-57.479 206.75s-2.238 7.163-5.002 16c-2.765 8.837-5.005 22.66-5.005 30.875s.84 19.017 1.876 24.125 4.674 14.566 8.125 21.125 9.665 14.775 13.875 18.353 16.106 9.351 26.568 12.894l63.364 21.463c10.462 3.543 24.036 6.416 30.318 6.416s14.117-.728 17.5-1.625 9.986-3.08 14.75-4.875 13.662-7.392 19.875-12.5 15.404-17.183 20.529-26.967l50.442-96.066C308.846 666.683 321.954 659 333 659z"/></svg>