<svg xmlns="http://www.w3.org/2000/svg" width="900" height="1100" viewBox="0 0 900 1100"><g fill="none" stroke-miterlimit="10"><path stroke="#F22" stroke-width="5" d="M307 714.789l28.892 30.716c3.784 4.023 9.919 4.023 13.703 0l22.042-23.432c3.784-4.023 9.919-4.023 13.704-.001l22.045 23.434c3.784 4.022 9.92 4.022 13.704 0l22.046-23.434c3.784-4.022 9.92-4.022 13.704 0l22.046 23.434c3.785 4.022 9.921 4.022 13.705 0l22.047-23.434c3.784-4.022 9.921-4.022 13.705 0l22.05 23.434c3.784 4.022 9.921 4.022 13.705 0L593 714.789"/><circle stroke="#FFF" stroke-width="10" cx="453" cy="655.007" r="222.5"/><circle stroke="#FFF" stroke-width="10" cx="347" cy="578" r="28"/><circle stroke="#FFF" stroke-width="10" cx="548.732" cy="578" r="28"/></g><g fill="none" stroke="#FFF" stroke-miterlimit="10"><path stroke-width="10" d="M720 354c0 6.627-5.373 12-12 12H198c-6.627 0-12-5.373-12-12V86c0-6.627 5.373-12 12-12h510c6.627 0 12 5.373 12 12v268z"/><path stroke-width="5" d="M186 112h534"/><path stroke-width="10" d="M241 58v31m48-31v31m51-31v31m53-31v31m57-31v31m57-31v31m51-31v31m49-31v31m57-31v31"/></g><path fill="none" stroke="#FF3B3B" stroke-width="15" stroke-miterlimit="10" d="M505.391 295.556h-104c-5.523 0-8.215-4.106-6.013-9.171l2.025-4.658c2.202-5.065 7.366-12.109 11.533-15.732l15.454-13.438 49.417-42.481c4.188-3.601 8.59-10.881 9.832-16.263l1.502-6.512c1.242-5.382.011-13.326-2.751-17.744s-7.91-9.567-11.5-11.5-10.082-3.5-14.5-3.5h-35c-5.523 0-12.126 2.126-14.75 4.75l-4.75 4.75"/></svg>