<svg xmlns="http://www.w3.org/2000/svg" width="900" height="1100" viewBox="0 0 900 1100"><path fill="#FF2727" d="M455.539 437.539c0 6.627-5.373 12-12 12H83c-6.627 0-12-5.373-12-12V77c0-6.627 5.373-12 12-12h360.539c6.627 0 12 5.373 12 12v360.539z"/><path fill="#86F761" d="M455.539 437.539c0 6.627 5.373 12 12 12h360.539c6.627 0 12-5.373 12-12V77c0-6.627-5.373-12-12-12H467.539c-6.627 0-12 5.373-12 12v360.539z"/><path fill="#4859F7" d="M455.092 461.461c0-6.627-5.373-12-12-12H82.553c-6.627 0-12 5.373-12 12V822c0 6.627 5.373 12 12 12h360.539c6.627 0 12-5.373 12-12V461.461z"/><path fill="#FBFF4A" d="M841.078 461.461c0-6.627-5.373-12-12-12H468.539c-6.627 0-12 5.373-12 12V822c0 6.627 5.373 12 12 12h360.539c6.627 0 12-5.373 12-12V461.461z"/></svg>