<svg xmlns="http://www.w3.org/2000/svg" width="900" height="1100" viewBox="0 0 900 1100"><g stroke-miterlimit="10"><circle fill="#FFF" stroke="#FFF" cx="142.252" cy="309.271" r="22.343"/><circle fill="#FFF" stroke="#FCFCFC" cx="743.272" cy="148.403" r="22.343"/><path fill="none" stroke="#FCFCFC" stroke-width="10" d="M148.195 323.833l114.619 253.566c1.695 3.748 2.397 9.531 1.568 12.917-.828 3.386-3.177 7.676-5.247 9.58-2.07 1.903-6.861 4.643-10.701 6.114l-10.08 3.864c-3.84 1.472-6.953 4.724-6.953 7.264 0 2.538-3.335 4.597-7.448 4.597H79.185c-4.113 0-8.119-2.401-8.946-5.364-.828-2.962-3.681-6.222-6.371-7.279l-4.873-1.915-9.621-4.023c-3.794-1.588-8.549-4.589-10.619-6.705-2.071-2.116-3.749-6.404-3.749-9.578s1.278-8.827 2.855-12.626L139.95 328.24"/><path fill="#F9F9F9" stroke="#FCFCFC" stroke-width="2.5" d="M233.857 584.585a7.943 7.943 0 0 1-7.943 7.943H80.933a7.945 7.945 0 0 1 0-15.888h144.981a7.944 7.944 0 0 1 7.943 7.945z"/><path fill="none" stroke="#FCFCFC" stroke-width="10" d="M739.052 157.007L637.679 397.556c-1.598 3.789-2.893 10.198-2.893 14.311v.303c0 4.112 2.761 9.316 6.167 11.623l3.307 2.241c3.405 2.307 9.376 5.083 13.333 6.202l1.307.37c3.957 1.12 8.167 4.667 9.4 7.921 1.234 3.256 5.568 5.895 9.682 5.895h145.974c4.112 0 7.447-2.309 7.447-5.158s3.082-6.43 6.886-7.998l13.04-5.376c3.804-1.568 8.554-5.146 10.611-7.996 2.055-2.85 3.722-6.745 3.722-8.705 0-1.959-1.429-6.558-3.191-10.275L742.775 148.518"/><path fill="#FFF" stroke="#FCFCFC" stroke-width="2.5" d="M830.658 410.312a7.944 7.944 0 0 1-7.944 7.943h-144.98a7.945 7.945 0 0 1 0-15.889h144.979a7.946 7.946 0 0 1 7.945 7.946zm-689.371-92.856l613.748-159.152-5.776-15.866-613.557 158.001z"/></g><g stroke="#FCFCFC" stroke-miterlimit="10"><path fill="#2597B9" stroke-width="10" d="M620.387 825.389H270.35c-4.112 0-7.447-3.361-7.447-7.51v-71.351c0-4.147 2.358-9.888 5.266-12.821l2.128-2.146c2.908-2.932 8.339-6.614 12.131-8.225l.421-.18c3.792-1.609 10.13-3.594 14.158-4.436l93.403-19.488c4.028-.841 7.293-4.885 7.293-9.031v-72.103c0-4.148 3.167-7.51 7.075-7.51 3.908 0 7.075-2.185 7.075-4.882 0-2.695 2.667-4.882 5.958-4.882s5.958-3.361 5.958-7.51v-57.081c0-4.147 1.334-7.51 2.979-7.51s2.979-3.362 2.979-7.511V193.756c0-4.147 3.335-7.51 7.448-7.51h19.364c4.113 0 7.447 3.362 7.447 7.51v324.453c0 4.148 2.168 7.511 4.842 7.511 2.673 0 4.841 3.362 4.841 7.511v53.324c0 4.148 1.834 7.51 4.096 7.51s4.096 2.187 4.096 4.882c0 2.697 2.835 4.882 6.332 4.882s6.333 3.363 6.333 7.512v81.112c0 4.147 3.265 8.191 7.293 9.029l100.848 20.996c4.028.837 10.067 3.385 13.49 5.685l5.48 3.684c3.423 2.302 6.197 7.529 6.197 11.679v74.354c.001 4.147-3.333 7.509-7.447 7.509z"/><circle fill="#FFF" stroke-width="2.5" cx="446.982" cy="161.437" r="35.127"/><path fill="#FFF" stroke-width="2.5" d="M422.281 278.736h-32.024c-4.113 0-7.448-3.143-7.448-7.019s3.335-7.018 7.448-7.018h32.024c4.112 0 7.447 3.142 7.447 7.018s-3.334 7.019-7.447 7.019zm81.179 1.806h-32.024c-4.113 0-7.448-3.142-7.448-7.019 0-3.876 3.335-7.018 7.448-7.018h32.024c4.113 0 7.447 3.142 7.447 7.018s-3.334 7.019-7.447 7.019z"/></g></svg>