<svg xmlns="http://www.w3.org/2000/svg" width="900" height="1100" viewBox="0 0 900 1100"><circle fill="none" stroke="#FFF" stroke-width="20" stroke-miterlimit="10" cx="450.498" cy="540.166" r="395.178"/><path fill="#FF3B3B" stroke="#FF3B3B" stroke-miterlimit="10" d="M449.719 502.62a7.985 7.985 0 0 0 5.914 9.622 7.985 7.985 0 0 0 9.621-5.914l68.557-287.238a7.986 7.986 0 0 0-15.535-3.708L449.719 502.62z"/><g stroke="#FF3B3B" stroke-miterlimit="10"><path fill="#FF3B3B" d="M433.526 173.406v49.329a2.71 2.71 0 0 1-2.71 2.71h-8.267a2.71 2.71 0 0 1-2.71-2.71v-37.197c0-1.497-.858-1.853-1.917-.794l-6.122 6.122c-1.059 1.058-1.917.703-1.917-.794v-9.822c0-1.497 1-3.398 2.233-4.246l5.487-3.772c1.234-.848 3.447-1.536 4.944-1.536h8.267a2.71 2.71 0 0 1 2.712 2.71z"/><path fill="none" stroke-width="10" d="M481.543 221h-33.826c-1.796 0-2.672-1.335-1.956-2.983l.659-1.515c.716-1.647 2.396-3.938 3.751-5.117l5.026-4.371 16.072-13.816c1.362-1.171 2.794-3.539 3.198-5.29l.488-2.118c.404-1.75.003-4.334-.895-5.771-.898-1.437-2.573-3.112-3.741-3.74-1.167-.629-3.278-1.139-4.715-1.139H454.22c-1.797 0-3.944.692-4.798 1.545l-1.545 1.545"/></g><path fill="#FF3B3B" d="M786.875 527.299v-4.079c0-1.165.668-2.777 1.491-3.601l5.666-5.666c.823-.824 2.436-1.492 3.601-1.492h9.774c1.165 0 2.777.668 3.602 1.492l5.982 5.982c.823.824 1.491 2.436 1.491 3.602v7.277c0 1.165-.668 2.777-1.491 3.601l-1.922 1.921a2.112 2.112 0 0 0 0 2.984l3.645 3.644c.823.824 1.491 2.436 1.491 3.602v7.452c0 1.166-.668 2.778-1.491 3.603l-8.761 8.759c-.823.824-2.435 1.492-3.601 1.492H797c-1.165 0-2.776-.668-3.601-1.492l-7.881-7.88c-.823-.824-1.491-2.437-1.491-3.601v-7.841c0-.35.944-.633 2.109-.633h5.801c1.165 0 2.109.944 2.109 2.109v4.501a2.11 2.11 0 0 0 2.11 2.109h9.422a2.11 2.11 0 0 0 2.109-2.109v-7.384a2.109 2.109 0 0 0-2.109-2.109h-6.047a2.11 2.11 0 0 1-2.109-2.11v-7.804c0-1.165.944-2.109 2.109-2.109h7.875a2.11 2.11 0 0 0 2.109-2.109v-4.922a2.109 2.109 0 0 0-2.109-2.109h-9.984a2.109 2.109 0 0 0-2.109 2.109v1.547a2.109 2.109 0 0 1-2.109 2.109h-7.384"/><path fill="#FF3B3B" stroke="#FF3B3B" stroke-miterlimit="10" d="M473.3 860.126c0-2.35-1.308-5.563-2.921-7.175-1.613-1.613-4.826-2.921-7.176-2.921h-5.429c-2.351 0-5.603 1.347-7.264 3.009l-.333.332c-1.662 1.662-3.009 4.914-3.009 7.264v41.189c0 2.35 1.347 5.602 3.009 7.264l.774.774c1.662 1.662 4.913 3.009 7.264 3.009h10.829c2.35 0 5.602-1.347 7.264-3.009l.569-.569c1.662-1.662 3.009-4.914 3.009-7.264v-13.82c0-2.35-1.713-5.09-3.825-6.118l-.213-.104c-2.112-1.028-5.73-1.862-8.08-1.862h-2.329c-2.35 0-5.971.763-8.088 1.702-2.116.939-3.832-.203-3.832-2.553v-12.765a4.254 4.254 0 0 1 4.255-4.255h1.499c2.35 0 4.254.952 4.254 2.127 0 1.176 1.905 2.128 4.256 2.128h1.262c2.35 0 4.255-.286 4.255-.639v-5.744z"/><path fill="#2597B9" d="M469.063 904.377h-7.582a1.063 1.063 0 0 1-1.063-1.063v-14.041c0-.588.477-1.063 1.063-1.063h7.582c.588 0 1.064.476 1.064 1.063v14.041c0 .587-.477 1.063-1.064 1.063z"/><path fill="#FF3B3B" stroke="#FF3B3B" stroke-miterlimit="10" d="M94.213 550.648c0 2.35 1.6 5.563 3.575 7.176 1.975 1.613 5.907 2.92 8.784 2.92h6.646c2.878 0 6.858-1.346 8.892-3.008l.408-.332c2.034-1.662 3.683-4.914 3.683-7.264v-41.189c0-2.35-1.648-5.602-3.683-7.264l-.948-.774c-2.034-1.662-6.015-3.009-8.892-3.009H99.421c-2.876 0-6.856 1.347-8.892 3.009l-.697.569c-2.035 1.662-3.684 4.914-3.684 7.264v13.82c0 2.35 2.098 5.09 4.684 6.118l.26.104c2.586 1.028 7.016 1.862 9.892 1.862h2.851c2.877 0 7.31-.763 9.901-1.702s4.69.203 4.69 2.553v12.764c0 2.352-2.33 4.256-5.208 4.256h-1.835c-2.877 0-5.207-.953-5.207-2.127 0-1.176-2.333-2.129-5.211-2.129h-1.544c-2.876 0-5.208.287-5.208.639v5.744z"/><path fill="#2597B9" d="M99.399 506.398h9.282c.718 0 1.301.476 1.301 1.063v14.041c0 .588-.583 1.063-1.301 1.063h-9.282c-.72 0-1.304-.476-1.304-1.063v-14.041c.001-.587.585-1.063 1.304-1.063z"/><g fill="#FFF" stroke="#FFF" stroke-miterlimit="10"><circle cx="445.511" cy="517.241" r="24.008"/><path d="M346.024 718.419c-1.444 3.161.338 7.072 3.98 8.736 3.641 1.662 7.764.447 9.208-2.714l90.287-197.72c1.445-3.162-.337-7.074-3.979-8.737-3.642-1.662-7.765-.447-9.208 2.714l-90.288 197.721zM456 248.213c0-4.536-3.806-8.213-8.5-8.213s-8.5 3.677-8.5 8.213v241.478c0 4.536 3.806 8.213 8.5 8.213s8.5-3.677 8.5-8.213V248.213z"/></g></svg>