<?xml version="1.0" encoding="utf-8"?>
<!-- Generator: Adobe Illustrator 16.0.0, SVG Export Plug-In . SVG Version: 6.00 Build 0)  -->
<!DOCTYPE svg PUBLIC "-//W3C//DTD SVG 1.1//EN" "http://www.w3.org/Graphics/SVG/1.1/DTD/svg11.dtd">
<svg version="1.1" id="drawSvg" xmlns="http://www.w3.org/2000/svg" xmlns:xlink="http://www.w3.org/1999/xlink" x="0px" y="0px"
	 width="900px" height="1100px" viewBox="0 0 900 1100" enable-background="new 0 0 900 1100" xml:space="preserve">
<g>
	
		<rect x="141.5" y="113.499" transform="matrix(0.9962 -0.0872 0.0872 0.9962 -43.8118 42.1956)" fill="none" stroke="#F7F7F7" stroke-width="10" stroke-miterlimit="10" width="638.999" height="818"/>
</g>
<g>
	<path fill="none" stroke="#F7F7F7" stroke-width="10" stroke-miterlimit="10" d="M158.241,262.137
		c28.048-2.7,29.772,15.217,57.82,12.518c28.048-2.7,26.323-20.617,54.372-23.317c28.047-2.7,29.772,15.217,57.819,12.518
		c28.049-2.7,26.324-20.617,54.373-23.316c28.047-2.7,29.772,15.217,57.819,12.518s26.322-20.617,54.37-23.316
		c28.049-2.7,29.773,15.217,57.822,12.517c28.048-2.7,26.323-20.617,54.37-23.316c28.052-2.7,29.776,15.217,57.828,12.517
		s26.327-20.617,54.379-23.317"/>
</g>
<g>
	<path fill="none" stroke="#F7F7F7" stroke-width="10" stroke-miterlimit="10" d="M168.241,371.137
		c28.048-2.7,29.772,15.217,57.82,12.518c28.048-2.7,26.323-20.617,54.372-23.317c28.047-2.7,29.772,15.217,57.819,12.518
		c28.049-2.7,26.324-20.617,54.373-23.316c28.047-2.7,29.772,15.217,57.819,12.518s26.322-20.617,54.37-23.316
		c28.049-2.7,29.773,15.217,57.822,12.517c28.048-2.7,26.323-20.617,54.371-23.316c28.052-2.7,29.776,15.217,57.827,12.517
		c28.052-2.7,26.327-20.617,54.379-23.317"/>
</g>
<g>
	<path fill="none" stroke="#F7F7F7" stroke-width="10" stroke-miterlimit="10" d="M179.241,486.137
		c28.048-2.7,29.772,15.217,57.82,12.518c28.048-2.7,26.323-20.617,54.372-23.317c28.047-2.7,29.772,15.217,57.819,12.518
		c28.049-2.7,26.324-20.617,54.373-23.316c28.047-2.7,29.772,15.217,57.819,12.518s26.322-20.617,54.37-23.316
		c28.049-2.7,29.773,15.217,57.822,12.517c28.048-2.7,26.323-20.617,54.37-23.316c28.052-2.7,29.776,15.217,57.828,12.517
		s26.327-20.617,54.379-23.317"/>
</g>
<g>
	<path fill="none" stroke="#F7F7F7" stroke-width="10" stroke-miterlimit="10" d="M179.241,610.137
		c28.048-2.699,29.772,15.218,57.82,12.519c28.048-2.7,26.324-20.617,54.372-23.317c28.047-2.699,29.772,15.218,57.819,12.519
		c28.049-2.7,26.324-20.618,54.373-23.318c28.047-2.699,29.772,15.218,57.819,12.519c28.047-2.7,26.322-20.617,54.37-23.317
		c28.049-2.699,29.773,15.218,57.822,12.519c28.048-2.7,26.323-20.617,54.37-23.317c28.052-2.7,29.776,15.218,57.828,12.518
		s26.327-20.618,54.379-23.318"/>
</g>
<g>
	<path fill="none" stroke="#F7F7F7" stroke-width="10" stroke-miterlimit="10" d="M196.241,721.137
		c28.048-2.699,29.772,15.218,57.82,12.519c28.048-2.7,26.324-20.617,54.372-23.317c28.047-2.699,29.772,15.218,57.819,12.519
		c28.049-2.7,26.324-20.618,54.373-23.318c28.047-2.699,29.772,15.218,57.819,12.519c28.047-2.7,26.322-20.617,54.37-23.317
		c28.049-2.699,29.773,15.218,57.822,12.519c28.048-2.7,26.323-20.617,54.37-23.317c28.052-2.7,29.776,15.218,57.828,12.518
		s26.327-20.618,54.379-23.318"/>
</g>
<g>
	<path fill="none" stroke="#F7F7F7" stroke-width="10" stroke-miterlimit="10" d="M224.241,833.137
		c28.048-2.699,29.772,15.218,57.82,12.519c28.048-2.7,26.323-20.617,54.372-23.317c28.047-2.699,29.772,15.217,57.819,12.518
		c28.049-2.7,26.324-20.617,54.373-23.317c28.047-2.699,29.772,15.218,57.819,12.519c28.047-2.7,26.322-20.617,54.37-23.317
		c28.049-2.699,29.773,15.218,57.822,12.519c28.048-2.7,26.323-20.617,54.371-23.317c28.052-2.7,29.776,15.218,57.827,12.518
		c28.052-2.7,26.327-20.618,54.379-23.318"/>
</g>
</svg>
