<?xml version="1.0" encoding="utf-8"?>
<!-- Generator: Adobe Illustrator 16.0.0, SVG Export Plug-In . SVG Version: 6.00 Build 0)  -->
<!DOCTYPE svg PUBLIC "-//W3C//DTD SVG 1.1//EN" "http://www.w3.org/Graphics/SVG/1.1/DTD/svg11.dtd">
<svg version="1.1" xmlns="http://www.w3.org/2000/svg" xmlns:xlink="http://www.w3.org/1999/xlink" x="0px" y="0px" width="900px"
	 height="1100px" viewBox="0 0 900 1100" enable-background="new 0 0 900 1100" xml:space="preserve">
<g id="buttons">
	<path fill="#333333" d="M194.5,470h32c1.381,0,2.5,1.119,2.5,2.5v23.314c0,1.381-0.64,3.418-1.429,4.551l-15.042,21.583
		c-0.789,1.133-2.103,1.157-2.933,0.054l-15.768-20.942c-0.831-1.103-1.517-3.116-1.532-4.497l-0.268-24.064
		C192.013,471.119,193.119,470,194.5,470z"/>
	<path fill="#333333" d="M228,608h-35.5c-1.381,0-2.5-1.119-2.5-2.5v-26.813c0-1.381,0.68-3.389,1.519-4.485l16.612-21.716
		c0.839-1.097,2.183-1.084,3.001,0.027l16.686,22.661c0.819,1.111,1.526,3.131,1.58,4.511l1.004,25.817
		C230.457,606.882,229.381,608,228,608z"/>
	<path fill="#333333" d="M131,554.5v-32c0-1.381,1.119-2.5,2.5-2.5h27.314c1.381,0,3.418,0.64,4.551,1.429l21.583,15.042
		c1.133,0.789,1.133,2.069,0,2.859l-22.834,15.916c-1.132,0.79-3.17,1.441-4.551,1.456l-26.064,0.271
		C132.119,556.988,131,555.881,131,554.5z"/>
	<path fill="#333333" d="M292,521v35.5c0,1.381-1.119,2.5-2.5,2.5h-23.814c-1.381,0-3.389-0.68-4.486-1.52l-21.715-16.612
		c-1.096-0.839-1.103-2.208-0.014-3.057l21.244-16.575c1.089-0.849,3.089-1.583,4.469-1.64l24.318-0.995
		C290.882,518.546,292,519.619,292,521z"/>
	<path fill="#333333" d="M555,519v33.5c0,1.381-1.119,2.5-2.5,2.5h-41.082c-1.381,0-3.521-0.461-4.778-1.028l-36.829-16.624
		c-1.258-0.568-1.263-1.498-0.009-2.077l35.87-16.579c1.254-0.579,3.389-1.076,4.769-1.109l42.061-1.021
		C553.881,516.527,555,517.619,555,519z"/>
	<path fill="#333333" d="M356,552.485V519.5c0-1.381,1.119-2.5,2.5-2.5h41.544c1.381,0,3.522,0.455,4.784,1.017l36.818,16.39
		c1.261,0.562,1.266,1.481,0.009,2.055l-36.091,16.472c-1.256,0.573-3.394,1.063-4.774,1.092l-42.291,0.906
		C357.119,554.961,356,553.866,356,552.485z"/>
	<circle fill="#009245" stroke="#009245" stroke-width="4" stroke-miterlimit="10" cx="691.702" cy="493.58" r="23.58"/>
	<circle fill="#0071BC" stroke="#0071BC" stroke-width="4" stroke-miterlimit="10" cx="691.702" cy="584.699" r="23.58"/>
	<circle fill="#FF1D25" stroke="#FF1D25" stroke-width="4" stroke-miterlimit="10" cx="644.543" cy="537.541" r="23.579"/>
	<circle fill="#FFFF00" stroke="#FFFF00" stroke-width="4" stroke-miterlimit="10" cx="743" cy="538.5" r="23.579"/>
</g>
<g id="controller">
	<path fill="none" stroke="#FFFFFF" stroke-width="10" stroke-miterlimit="10" d="M333,659h224c11.046,0,23.855,7.832,28.611,17.801
		l44.444,93.043c4.756,9.969,14.966,24.297,22.805,32.079l3.574,3.768c7.839,7.782,23.147,14.31,34.193,14.31H701
		c11.046,0,28.396-3.36,38.755-7.196l65.535-24.399c10.358-3.836,22.112-15.31,26.253-25.55l8.459-20.949
		c4.141-10.24,7.498-21.317,7.498-24.724c0-3.405-2.362-14.811-5.275-25.466l-62.282-227.754
		c-2.913-10.654-12.491-24.595-21.394-31.135l-0.432-0.318c-8.901-6.54-16.621-15.685-17.242-20.425
		c-0.621-4.74-2.076-9.815-3.25-11.333s-3.972-3.981-6.25-5.499s-4.685-2.723-5.375-3S715.796,392,704.75,392H620
		c-11.046,0-21.287,0.478-22.875,1.375s-3.826,2.228-5,3.125L590,398.063c0,0-2.854,2.793-6.375,5.969S568.296,410,557.25,410H400
		h-86c-11.046,0-20.56-2.041-21.25-4.25s-2.257-5.132-3.5-6.375s-3.257-3.04-4.5-3.938s-2.698-1.91-3.25-2.531
		s-9.954-0.906-21-0.906H172c-11.046,0-21.623,0.589-23.625,1.625s-4.632,2.869-5.875,4.25s-3.116,3.445-3.875,4.688
		S137,405.701,137,406.875V409c0,0,0,2.015,0,4.5s-4.059,8.082-9.375,12.5S116.278,436.294,114,439.125s-4.846,7.028-5.813,9.375
		l-1.719,4.25l-2.484,7.75L46.505,667.25c0,0-2.238,7.163-5.002,16c-2.765,8.837-5.005,22.66-5.005,30.875s0.84,19.017,1.876,24.125
		s4.674,14.566,8.125,21.125s9.665,14.775,13.875,18.353s16.106,9.351,26.568,12.894l63.364,21.463
		c10.462,3.543,24.036,6.416,30.318,6.416s14.117-0.728,17.5-1.625s9.986-3.08,14.75-4.875s13.662-7.392,19.875-12.5
		s15.404-17.183,20.529-26.967l50.442-96.066C308.846,666.683,321.954,659,333,659z"/>
</g>
</svg>
