<?xml version="1.0" encoding="utf-8"?>
<!-- Generator: Adobe Illustrator 16.0.0, SVG Export Plug-In . SVG Version: 6.00 Build 0)  -->
<!DOCTYPE svg PUBLIC "-//W3C//DTD SVG 1.1//EN" "http://www.w3.org/Graphics/SVG/1.1/DTD/svg11.dtd">
<svg version="1.1" id="window" xmlns="http://www.w3.org/2000/svg" xmlns:xlink="http://www.w3.org/1999/xlink" x="0px" y="0px"
	 width="900px" height="1100px" viewBox="0 0 900 1100" enable-background="new 0 0 900 1100" xml:space="preserve">
<path id="tiles_3_" fill="#FF2727" d="M455.539,437.539c0,6.627-5.373,12-12,12H83c-6.627,0-12-5.373-12-12V77
	c0-6.627,5.373-12,12-12h360.539c6.627,0,12,5.373,12,12V437.539z"/>
<path id="tiles_2_" fill="#86F761" d="M455.539,437.539c0,6.627,5.373,12,12,12h360.539c6.627,0,12-5.373,12-12V77
	c0-6.627-5.373-12-12-12H467.539c-6.627,0-12,5.373-12,12V437.539z"/>
<path id="tiles_1_" fill="#4859F7" d="M455.092,461.461c0-6.627-5.373-12-12-12H82.553c-6.627,0-12,5.373-12,12V822
	c0,6.627,5.373,12,12,12h360.539c6.627,0,12-5.373,12-12V461.461z"/>
<path id="tiles" fill="#FBFF4A" d="M841.078,461.461c0-6.627-5.373-12-12-12H468.539c-6.627,0-12,5.373-12,12V822
	c0,6.627,5.373,12,12,12h360.539c6.627,0,12-5.373,12-12V461.461z"/>
</svg>
