<?xml version="1.0" encoding="utf-8"?>
<!-- Generator: Adobe Illustrator 16.0.0, SVG Export Plug-In . SVG Version: 6.00 Build 0)  -->
<!DOCTYPE svg PUBLIC "-//W3C//DTD SVG 1.1//EN" "http://www.w3.org/Graphics/SVG/1.1/DTD/svg11.dtd">
<svg version="1.1" xmlns="http://www.w3.org/2000/svg" xmlns:xlink="http://www.w3.org/1999/xlink" x="0px" y="0px" width="900px"
	 height="1100px" viewBox="0 0 900 1100" enable-background="new 0 0 900 1100" xml:space="preserve">
<g id="tipping">
	<circle fill="#FFFFFF" stroke="#FFFFFF" stroke-miterlimit="10" cx="142.252" cy="309.271" r="22.343"/>
	<circle fill="#FFFFFF" stroke="#FCFCFC" stroke-miterlimit="10" cx="743.272" cy="148.403" r="22.343"/>
	<path fill="none" stroke="#FCFCFC" stroke-width="10" stroke-miterlimit="10" d="M148.195,323.833l114.619,253.566
		c1.695,3.748,2.397,9.531,1.568,12.917c-0.828,3.386-3.177,7.676-5.247,9.58c-2.07,1.903-6.861,4.643-10.701,6.114l-10.08,3.864
		c-3.84,1.472-6.953,4.724-6.953,7.264c0,2.538-3.335,4.597-7.448,4.597H79.185c-4.113,0-8.119-2.401-8.946-5.364
		c-0.828-2.962-3.681-6.222-6.371-7.279l-4.873-1.915l-9.621-4.023c-3.794-1.588-8.549-4.589-10.619-6.705
		c-2.071-2.116-3.749-6.404-3.749-9.578s1.278-8.827,2.855-12.626l102.089-246.005"/>
	<path fill="#F9F9F9" stroke="#FCFCFC" stroke-width="2.5" stroke-miterlimit="10" d="M233.857,584.585
		c0,4.387-3.557,7.943-7.943,7.943H80.933c-4.387,0-7.944-3.557-7.944-7.943l0,0c0-4.388,3.557-7.945,7.944-7.945h144.981
		C230.301,576.64,233.857,580.197,233.857,584.585L233.857,584.585z"/>
	<path fill="none" stroke="#FCFCFC" stroke-width="10" stroke-miterlimit="10" d="M739.052,157.007L637.679,397.556
		c-1.598,3.789-2.893,10.198-2.893,14.311v0.303c0,4.112,2.761,9.316,6.167,11.623l3.307,2.241
		c3.405,2.307,9.376,5.083,13.333,6.202l1.307,0.37c3.957,1.12,8.167,4.667,9.4,7.921c1.234,3.256,5.568,5.895,9.682,5.895h145.974
		c4.112,0,7.447-2.309,7.447-5.158c0-2.849,3.082-6.43,6.886-7.998l13.04-5.376c3.804-1.568,8.554-5.146,10.611-7.996
		c2.055-2.85,3.722-6.745,3.722-8.705c0-1.959-1.429-6.558-3.191-10.275L742.775,148.518"/>
	<path fill="#FFFFFF" stroke="#FCFCFC" stroke-width="2.5" stroke-miterlimit="10" d="M830.658,410.312
		c0,4.387-3.558,7.943-7.944,7.943H677.734c-4.389,0-7.944-3.557-7.944-7.943l0,0c0-4.388,3.556-7.946,7.944-7.946h144.979
		C827.101,402.366,830.658,405.924,830.658,410.312L830.658,410.312z"/>
	<polygon fill="#FFFFFF" stroke="#FCFCFC" stroke-width="2.5" stroke-miterlimit="10" points="141.287,317.456 755.035,158.304 
		749.259,142.438 135.702,300.439 	"/>
</g>
<g id="scale">
	<path fill="#2597B9" stroke="#FCFCFC" stroke-width="10" stroke-miterlimit="10" d="M620.387,825.389H270.35
		c-4.112,0-7.447-3.361-7.447-7.51v-71.351c0-4.147,2.358-9.888,5.266-12.821l2.128-2.146c2.908-2.932,8.339-6.614,12.131-8.225
		l0.421-0.18c3.792-1.609,10.13-3.594,14.158-4.436l93.403-19.488c4.028-0.841,7.293-4.885,7.293-9.031v-72.103
		c0-4.148,3.167-7.51,7.075-7.51c3.908,0,7.075-2.185,7.075-4.882c0-2.695,2.667-4.882,5.958-4.882s5.958-3.361,5.958-7.51v-57.081
		c0-4.147,1.334-7.51,2.979-7.51c1.645,0,2.979-3.362,2.979-7.511V193.756c0-4.147,3.335-7.51,7.448-7.51h19.364
		c4.113,0,7.447,3.362,7.447,7.51v324.453c0,4.148,2.168,7.511,4.842,7.511c2.673,0,4.841,3.362,4.841,7.511v53.324
		c0,4.148,1.834,7.51,4.096,7.51s4.096,2.187,4.096,4.882c0,2.697,2.835,4.882,6.332,4.882s6.333,3.363,6.333,7.512v81.112
		c0,4.147,3.265,8.191,7.293,9.029l100.848,20.996c4.028,0.837,10.067,3.385,13.49,5.685l5.48,3.684
		c3.423,2.302,6.197,7.529,6.197,11.679v74.354C627.835,822.027,624.501,825.389,620.387,825.389z"/>
	<circle fill="#FFFFFF" stroke="#FCFCFC" stroke-width="2.5" stroke-miterlimit="10" cx="446.982" cy="161.437" r="35.127"/>
	<path fill="#FFFFFF" stroke="#FCFCFC" stroke-width="2.5" stroke-miterlimit="10" d="M422.281,278.736h-32.024
		c-4.113,0-7.448-3.143-7.448-7.019s3.335-7.018,7.448-7.018h32.024c4.112,0,7.447,3.142,7.447,7.018
		S426.394,278.736,422.281,278.736z"/>
	<path fill="#FFFFFF" stroke="#FCFCFC" stroke-width="2.5" stroke-miterlimit="10" d="M503.46,280.542h-32.024
		c-4.113,0-7.448-3.142-7.448-7.019c0-3.876,3.335-7.018,7.448-7.018h32.024c4.113,0,7.447,3.142,7.447,7.018
		C510.907,277.399,507.573,280.542,503.46,280.542z"/>
</g>
</svg>
