<?xml version="1.0" encoding="utf-8"?>
<!-- Generator: Adobe Illustrator 16.0.0, SVG Export Plug-In . SVG Version: 6.00 Build 0)  -->
<!DOCTYPE svg PUBLIC "-//W3C//DTD SVG 1.1//EN" "http://www.w3.org/Graphics/SVG/1.1/DTD/svg11.dtd">
<svg version="1.1" xmlns="http://www.w3.org/2000/svg" xmlns:xlink="http://www.w3.org/1999/xlink" x="0px" y="0px" width="900px"
	 height="1100px" viewBox="0 0 900 1100" enable-background="new 0 0 900 1100" xml:space="preserve">
<g id="clockbase">
	<circle fill="none" stroke="#FFFFFF" stroke-width="20" stroke-miterlimit="10" cx="450.498" cy="540.166" r="395.178"/>
</g>
<g id="moving_x5F_hand">
	<path fill="#FF3B3B" stroke="#FF3B3B" stroke-miterlimit="10" d="M449.719,502.62c-1.024,4.291,1.623,8.598,5.914,9.622l0,0
		c4.29,1.024,8.597-1.624,9.621-5.914l68.557-287.238c1.023-4.291-1.623-8.598-5.913-9.622l0,0c-4.29-1.024-8.598,1.624-9.622,5.914
		L449.719,502.62z"/>
</g>
<g id="Layer_2">
	<path fill="#FF3B3B" stroke="#FF3B3B" stroke-miterlimit="10" d="M433.526,173.406v49.329c0,1.497-1.213,2.71-2.71,2.71h-8.267
		c-1.497,0-2.71-1.213-2.71-2.71V198.07v-8.399v-4.133c0-1.497-0.858-1.853-1.917-0.794l-6.122,6.122
		c-1.059,1.058-1.917,0.703-1.917-0.794v-9.822c0-1.497,1-3.398,2.233-4.246l5.487-3.772c1.234-0.848,3.447-1.536,4.944-1.536h8.267
		C432.313,170.695,433.526,171.909,433.526,173.406z"/>
	<path fill="none" stroke="#FF3B3B" stroke-width="10" stroke-miterlimit="10" d="M481.543,221h-33.826
		c-1.796,0-2.672-1.335-1.956-2.983l0.659-1.515c0.716-1.647,2.396-3.938,3.751-5.117l5.026-4.371l16.072-13.816
		c1.362-1.171,2.794-3.539,3.198-5.29l0.488-2.118c0.404-1.75,0.003-4.334-0.895-5.771c-0.898-1.437-2.573-3.112-3.741-3.74
		c-1.167-0.629-3.278-1.139-4.715-1.139h-2.603h-8.781c-1.797,0-3.944,0.692-4.798,1.545l-1.545,1.545"/>
</g>
<g id="Layer_3">
	<path fill="#FF3B3B" d="M786.875,527.299v-4.079c0-1.165,0.668-2.777,1.491-3.601l5.666-5.666c0.823-0.824,2.436-1.492,3.601-1.492
		h9.774c1.165,0,2.777,0.668,3.602,1.492l5.982,5.982c0.823,0.824,1.491,2.436,1.491,3.602v7.277c0,1.165-0.668,2.777-1.491,3.601
		l-1.922,1.921c-0.823,0.824-0.823,2.16,0,2.984l3.645,3.644c0.823,0.824,1.491,2.436,1.491,3.602v7.452
		c0,1.166-0.668,2.778-1.491,3.603l-8.761,8.759c-0.823,0.824-2.435,1.492-3.601,1.492H797c-1.165,0-2.776-0.668-3.601-1.492
		l-7.881-7.88c-0.823-0.824-1.491-2.437-1.491-3.601v-7.208c0,0,0-0.284,0-0.633c0-0.35,0.944-0.633,2.109-0.633h5.801
		c1.165,0,2.109,0.944,2.109,2.109v4.501c0,1.164,0.945,2.109,2.11,2.109h9.422c1.165,0,2.109-0.945,2.109-2.109v-7.384
		c0-1.165-0.944-2.109-2.109-2.109h-6.047c-1.165,0-2.109-0.945-2.109-2.11v-7.804c0-1.165,0.944-2.109,2.109-2.109h7.875
		c1.165,0,2.109-0.945,2.109-2.109v-4.922c0-1.165-0.944-2.109-2.109-2.109h-9.984c-1.165,0-2.109,0.944-2.109,2.109v1.547
		c0,1.165-0.944,2.109-2.109,2.109h-6.135h-1.249"/>
	<g>
		<path fill="#FF3B3B" stroke="#FF3B3B" stroke-miterlimit="10" d="M473.3,860.126c0-2.35-1.308-5.563-2.921-7.175
			c-1.613-1.613-4.826-2.921-7.176-2.921h-5.429c-2.351,0-5.603,1.347-7.264,3.009l-0.333,0.332
			c-1.662,1.662-3.009,4.914-3.009,7.264v41.189c0,2.35,1.347,5.602,3.009,7.264l0.774,0.774c1.662,1.662,4.913,3.009,7.264,3.009
			h10.829c2.35,0,5.602-1.347,7.264-3.009l0.569-0.569c1.662-1.662,3.009-4.914,3.009-7.264v-13.82c0-2.35-1.713-5.09-3.825-6.118
			l-0.213-0.104c-2.112-1.028-5.73-1.862-8.08-1.862h-2.329c-2.35,0-5.971,0.763-8.088,1.702c-2.116,0.939-3.832-0.203-3.832-2.553
			v-12.765c0-2.351,1.904-4.255,4.255-4.255h1.499c2.35,0,4.254,0.952,4.254,2.127c0,1.176,1.905,2.128,4.256,2.128h1.262
			c2.35,0,4.255-0.286,4.255-0.639v-0.638V860.126z"/>
		<path fill="#2597B9" d="M469.063,904.377h-7.582c-0.587,0-1.063-0.476-1.063-1.063v-14.041c0-0.588,0.477-1.063,1.063-1.063h7.582
			c0.588,0,1.064,0.476,1.064,1.063v14.041C470.127,903.901,469.65,904.377,469.063,904.377z"/>
	</g>
	<g>
		<path fill="#FF3B3B" stroke="#FF3B3B" stroke-miterlimit="10" d="M94.213,550.648c0,2.35,1.6,5.563,3.575,7.176
			c1.975,1.613,5.907,2.92,8.784,2.92h6.646c2.878,0,6.858-1.346,8.892-3.008l0.408-0.332c2.034-1.662,3.683-4.914,3.683-7.264
			v-41.189c0-2.35-1.648-5.602-3.683-7.264l-0.948-0.774c-2.034-1.662-6.015-3.009-8.892-3.009H99.421
			c-2.876,0-6.856,1.347-8.892,3.009l-0.697,0.569c-2.035,1.662-3.684,4.914-3.684,7.264v13.82c0,2.35,2.098,5.09,4.684,6.118
			l0.26,0.104c2.586,1.028,7.016,1.862,9.892,1.862h2.851c2.877,0,7.31-0.763,9.901-1.702c2.591-0.939,4.69,0.203,4.69,2.553v12.764
			c0,2.352-2.33,4.256-5.208,4.256h-1.835c-2.877,0-5.207-0.953-5.207-2.127c0-1.176-2.333-2.129-5.211-2.129h-1.544
			c-2.876,0-5.208,0.287-5.208,0.639v0.639V550.648z"/>
		<path fill="#2597B9" d="M99.399,506.398h9.282c0.718,0,1.301,0.476,1.301,1.063v14.041c0,0.588-0.583,1.063-1.301,1.063h-9.282
			c-0.72,0-1.304-0.476-1.304-1.063v-14.041C98.096,506.874,98.68,506.398,99.399,506.398z"/>
	</g>
</g>
<g id="Layer_4">
</g>
<g id="noHands">
	<circle fill="#FFFFFF" stroke="#FFFFFF" stroke-miterlimit="10" cx="445.511" cy="517.241" r="24.008"/>
	<path fill="#FFFFFF" stroke="#FFFFFF" stroke-miterlimit="10" d="M346.024,718.419c-1.444,3.161,0.338,7.072,3.98,8.736l0,0
		c3.641,1.662,7.764,0.447,9.208-2.714l90.287-197.72c1.445-3.162-0.337-7.074-3.979-8.737l0,0
		c-3.642-1.662-7.765-0.447-9.208,2.714L346.024,718.419z"/>
	<path fill="#FFFFFF" stroke="#FFFFFF" stroke-miterlimit="10" d="M456,248.213c0-4.536-3.806-8.213-8.5-8.213l0,0
		c-4.694,0-8.5,3.677-8.5,8.213v241.478c0,4.536,3.806,8.213,8.5,8.213l0,0c4.694,0,8.5-3.677,8.5-8.213V248.213z"/>
</g>
</svg>
